<svg xmlns="http://www.w3.org/2000/svg" xmlns:xlink="http://www.w3.org/1999/xlink" version="1.1" width="1000" height="1000" viewBox="0 0 1000 1000" xml:space="preserve">
<desc>Created with Fabric.js 3.5.0</desc>
<defs>
</defs>
<rect x="0" y="0" width="100%" height="100%" fill="rgba(255,255,255,0)"/>
<g transform="matrix(2.0054 0 0 2.0054 500.0063 500.0061)" id="62733">
<path style="stroke: none; stroke-width: 1; stroke-dasharray: none; stroke-linecap: butt; stroke-dashoffset: 0; stroke-linejoin: miter; stroke-miterlimit: 4; is-custom-font: none; font-file-url: none; fill: rgb(255,211,105); fill-rule: nonzero; opacity: 1;" vector-effect="non-scaling-stroke" transform=" translate(-256, -256.0008)" d="M 255.969 21.733 c -131.739 0 -238.572 107.541 -238.572 240.206 c 0 106.107 68.362 196.121 163.205 227.91 c 11.929 2.22 16.285 -5.196 16.285 -11.567 c 0 -5.713 -0.205 -20.817 -0.33 -40.856 c -66.36 14.507 -80.375 -32.208 -80.375 -32.208 c -10.828 -27.756 -26.489 -35.139 -26.489 -35.139 c -21.684 -14.893 1.613 -14.591 1.613 -14.591 c 23.948 1.701 36.534 24.759 36.534 24.759 c 21.295 36.694 55.866 26.105 69.465 19.947 c 2.146 -15.521 8.318 -26.105 15.154 -32.116 c -52.974 -6.073 -108.69 -26.681 -108.69 -118.699 c 0 -26.229 9.31 -47.668 24.576 -64.478 c -2.475 -6.071 -10.646 -30.507 2.329 -63.554 c 0 0 20.045 -6.455 65.613 24.614 c 19.031 -5.325 39.432 -7.982 59.742 -8.072 c 20.25 0.123 40.676 2.747 59.738 8.105 c 45.547 -31.074 65.559 -24.614 65.559 -24.614 c 13.002 33.077 4.832 57.482 2.387 63.549 c 15.297 16.81 24.516 38.25 24.516 64.482 c 0 92.258 -55.773 112.563 -108.92 118.512 c 8.559 7.422 16.191 22.069 16.191 44.471 c 0 32.124 -0.297 58.019 -0.297 65.888 c 0 6.427 4.293 13.903 16.402 11.54 c 94.697 -31.824 162.998 -121.805 162.998 -227.883 C 494.604 129.273 387.771 21.733 255.969 21.733 L 255.969 21.733 z M 255.969 21.733" stroke-linecap="round"/>
</g>
</svg>