<svg xmlns="http://www.w3.org/2000/svg" xmlns:xlink="http://www.w3.org/1999/xlink" version="1.1" width="100" height="100" viewBox="0 0 100 100" xml:space="preserve">
<desc>Created with Fabric.js 3.5.0</desc>
<defs>
</defs>
<rect x="0" y="0" width="100%" height="100%" fill="rgba(255,255,255,0)"/>
<g transform="matrix(0.1379 0 0 0.1379 49.9896 49.9938)" id="217967">
<path style="stroke: none; stroke-width: 1; stroke-dasharray: none; stroke-linecap: butt; stroke-dashoffset: 0; stroke-linejoin: miter; stroke-miterlimit: 4; is-custom-font: none; font-file-url: none; fill: rgb(255,255,255); fill-rule: nonzero; opacity: 1;" vector-effect="non-scaling-stroke" transform=" translate(-320, -255.6236)" d="M 0 383.9 l 64 0.0404 c 17.75 0 32 -14.29 32 -32.03 V 128.3 L 0 128.3 V 383.9 z M 48 320.1 c 8.75 0 16 7.118 16 15.99 c 0 8.742 -7.25 15.99 -16 15.99 S 32 344.8 32 336.1 C 32 327.2 39.25 320.1 48 320.1 z M 348.8 64 c -7.941 0 -15.66 2.969 -21.52 8.328 L 228.9 162.3 C 228.8 162.5 228.8 162.7 228.6 162.7 C 212 178.3 212.3 203.2 226.5 218.7 c 12.75 13.1 39.38 17.62 56.13 2.75 C 282.8 221.3 282.9 221.3 283 221.2 l 79.88 -73.1 c 6.5 -5.871 16.75 -5.496 22.62 1 c 6 6.496 5.5 16.62 -1 22.62 l -26.12 23.87 L 504 313.7 c 2.875 2.496 5.5 4.996 7.875 7.742 V 127.1 c -40.98 -40.96 -96.48 -63.88 -154.4 -63.88 L 348.8 64 z M 334.6 217.4 l -30 27.49 c -29.75 27.11 -75.25 24.49 -101.8 -4.371 C 176 211.2 178.1 165.7 207.3 138.9 L 289.1 64 H 282.5 C 224.7 64 169.1 87.08 128.2 127.9 L 128 351.8 l 18.25 0.0369 l 90.5 81.82 c 27.5 22.37 67.75 18.12 90 -9.246 l 18.12 15.24 c 15.88 12.1 39.38 10.5 52.38 -5.371 l 31.38 -38.6 l 5.374 4.498 c 13.75 11 33.88 9.002 45 -4.748 l 9.538 -11.78 c 11.12 -13.75 9.036 -33.78 -4.694 -44.93 L 334.6 217.4 z M 544 128.4 v 223.6 c 0 17.62 14.25 32.05 31.1 32.05 L 640 384 V 128.1 L 544 128.4 z M 592 352 c -8.75 0 -16 -7.246 -16 -15.99 c 0 -8.875 7.25 -15.99 16 -15.99 S 608 327.2 608 336.1 C 608 344.8 600.8 352 592 352 z" stroke-linecap="round"/>
</g>
</svg>