<svg xmlns="http://www.w3.org/2000/svg" xmlns:xlink="http://www.w3.org/1999/xlink" version="1.1" width="100" height="100" viewBox="0 0 100 100" xml:space="preserve">
<desc>Created with Fabric.js 3.5.0</desc>
<defs>
</defs>
<rect x="0" y="0" width="100%" height="100%" fill="rgba(255,255,255,0)"/>
<g transform="matrix(4.66 0 0 4.66 47.1047 47.0662)" id="789738">
<path style="stroke: none; stroke-width: 1; stroke-dasharray: none; stroke-linecap: butt; stroke-dashoffset: 0; stroke-linejoin: miter; stroke-miterlimit: 4; is-custom-font: none; font-file-url: none; fill: rgb(255,211,105); fill-rule: nonzero; opacity: 1;" vector-effect="non-scaling-stroke" transform=" translate(-12.0013, -12.0073)" d="m 21.743 12.331 l -9 -10 c -0.379 -0.422 -1.107 -0.422 -1.486 0 l -9 10 A 1 1 0 0 0 3 14 h 2 v 7 a 1 1 0 0 0 1 1 h 12 a 1 1 0 0 0 1 -1 v -7 h 2 a 0.998 0.998 0 0 0 0.743 -1.669 z M 12 16 a 3 3 0 1 1 0 -6 a 3 3 0 0 1 0 6 z" stroke-linecap="round"/>
</g>
</svg>