<svg xmlns="http://www.w3.org/2000/svg" xmlns:xlink="http://www.w3.org/1999/xlink" version="1.1" width="100" height="100" viewBox="0 0 100 100" xml:space="preserve">
<desc>Created with Fabric.js 3.5.0</desc>
<defs>
</defs>
<rect x="0" y="0" width="100%" height="100%" fill="rgba(255,255,255,0)"/>
<g transform="matrix(4.25 0 0 4.25 50.0001 50.0001)" id="623191">
<path style="stroke: none; stroke-width: 1; stroke-dasharray: none; stroke-linecap: butt; stroke-dashoffset: 0; stroke-linejoin: miter; stroke-miterlimit: 4; is-custom-font: none; font-file-url: none; fill: rgb(255,211,105); fill-rule: nonzero; opacity: 1;" vector-effect="non-scaling-stroke" transform=" translate(-10, -10)" d="M 9 12 H 1 v 6 a 2 2 0 0 0 2 2 h 14 a 2 2 0 0 0 2 -2 v -6 h -8 v 2 H 9 v -2 z m 0 -1 H 0 V 5 c 0 -1.1 0.9 -2 2 -2 h 4 V 2 a 2 2 0 0 1 2 -2 h 4 a 2 2 0 0 1 2 2 v 1 h 4 a 2 2 0 0 1 2 2 v 6 h -9 V 9 H 9 v 2 z m 3 -8 V 2 H 8 v 1 h 4 z" stroke-linecap="round"/>
</g>
</svg>