<svg xmlns="http://www.w3.org/2000/svg" xmlns:xlink="http://www.w3.org/1999/xlink" version="1.1" width="100" height="100" viewBox="0 0 100 100" xml:space="preserve">
<desc>Created with Fabric.js 3.5.0</desc>
<defs>
</defs>
<rect x="0" y="0" width="100%" height="100%" fill="rgba(255,255,255,0)"/>
<g transform="matrix(3.2 0 0 3.2 48 48)" id="349769">
<g style="" vector-effect="non-scaling-stroke">
		<g transform="matrix(1 0 0 1 7.231 -7.94)" id="Layer_1">
<polygon style="stroke: none; stroke-width: 1; stroke-dasharray: none; stroke-linecap: butt; stroke-dashoffset: 0; stroke-linejoin: miter; stroke-miterlimit: 4; is-custom-font: none; font-file-url: none; fill: rgb(255,211,105); fill-rule: nonzero; opacity: 1;" points="-6.759,-3.94 -7.231,-3.06 -7.231,3.94 6.769,3.94 7.231,3.054 "/>
</g>
		<g transform="matrix(1 0 0 1 -7.231 -7.94)" id="Layer_1">
<polygon style="stroke: none; stroke-width: 1; stroke-dasharray: none; stroke-linecap: butt; stroke-dashoffset: 0; stroke-linejoin: miter; stroke-miterlimit: 4; is-custom-font: none; font-file-url: none; fill: rgb(255,211,105); fill-rule: nonzero; opacity: 1;" points="6.759,-3.94 7.231,-3.06 7.231,3.94 -6.769,3.94 -7.231,3.054 "/>
</g>
		<g transform="matrix(1 0 0 1 -7.231 -0.06)" id="Layer_1">
<polygon style="stroke: none; stroke-width: 1; stroke-dasharray: none; stroke-linecap: butt; stroke-dashoffset: 0; stroke-linejoin: miter; stroke-miterlimit: 4; is-custom-font: none; font-file-url: none; fill: rgb(255,211,105); fill-rule: nonzero; opacity: 1;" points="6.759,3.94 7.231,3.06 7.231,-3.94 -6.769,-3.94 -7.231,-3.054 "/>
</g>
		<g transform="matrix(1 0 0 1 7.231 -0.06)" id="Layer_1">
<polygon style="stroke: none; stroke-width: 1; stroke-dasharray: none; stroke-linecap: butt; stroke-dashoffset: 0; stroke-linejoin: miter; stroke-miterlimit: 4; is-custom-font: none; font-file-url: none; fill: rgb(255,211,105); fill-rule: nonzero; opacity: 1;" points="-6.759,3.94 -7.231,3.06 -7.231,-3.94 6.769,-3.94 7.231,-3.054 "/>
</g>
		<g transform="matrix(1 0 0 1 14 -4)" id="Layer_1">
<circle style="stroke: none; stroke-width: 1; stroke-dasharray: none; stroke-linecap: butt; stroke-dashoffset: 0; stroke-linejoin: miter; stroke-miterlimit: 4; is-custom-font: none; font-file-url: none; fill: rgb(255,211,105); fill-rule: nonzero; opacity: 1;" cx="0" cy="0" r="1"/>
</g>
		<g transform="matrix(1 0 0 1 -14 -4)" id="Layer_1">
<circle style="stroke: none; stroke-width: 1; stroke-dasharray: none; stroke-linecap: butt; stroke-dashoffset: 0; stroke-linejoin: miter; stroke-miterlimit: 4; is-custom-font: none; font-file-url: none; fill: rgb(255,211,105); fill-rule: nonzero; opacity: 1;" cx="0" cy="0" r="1"/>
</g>
		<g transform="matrix(1 0 0 1 0 3)" id="Layer_1">
<circle style="stroke: none; stroke-width: 1; stroke-dasharray: none; stroke-linecap: butt; stroke-dashoffset: 0; stroke-linejoin: miter; stroke-miterlimit: 4; is-custom-font: none; font-file-url: none; fill: rgb(255,211,105); fill-rule: nonzero; opacity: 1;" cx="0" cy="0" r="1"/>
</g>
		<g transform="matrix(1 0 0 1 0 -11)" id="Layer_1">
<circle style="stroke: none; stroke-width: 1; stroke-dasharray: none; stroke-linecap: butt; stroke-dashoffset: 0; stroke-linejoin: miter; stroke-miterlimit: 4; is-custom-font: none; font-file-url: none; fill: rgb(255,211,105); fill-rule: nonzero; opacity: 1;" cx="0" cy="0" r="1"/>
</g>
		<g transform="matrix(1 0 0 1 0 6.426)" id="Layer_1">
<path style="stroke: none; stroke-width: 1; stroke-dasharray: none; stroke-linecap: butt; stroke-dashoffset: 0; stroke-linejoin: miter; stroke-miterlimit: 4; is-custom-font: none; font-file-url: none; fill: rgb(255,211,105); fill-rule: nonzero; opacity: 1;" transform=" translate(-15, -21.426)" d="M 16.366 20.669 c -0.084 0.042 -0.169 0.077 -0.255 0.106 C 15.749 20.924 15.377 21 15 21 c -0.376 0 -0.747 -0.075 -1.107 -0.224 c -0.087 -0.029 -0.174 -0.065 -0.259 -0.108 L 6 16.852 V 21 c 0 2.761 4.029 5 9 5 s 9 -2.239 9 -5 v -4.148 L 16.366 20.669 z" stroke-linecap="round"/>
</g>
		<g transform="matrix(1 0 0 1 13 5.6765)" id="Layer_1">
<path style="stroke: none; stroke-width: 1; stroke-dasharray: none; stroke-linecap: butt; stroke-dashoffset: 0; stroke-linejoin: miter; stroke-miterlimit: 4; is-custom-font: none; font-file-url: none; fill: rgb(255,211,105); fill-rule: nonzero; opacity: 1;" transform=" translate(-28, -20.6765)" d="M 27 15.353 V 26 c 0 0.553 0.448 1 1 1 s 1 -0.447 1 -1 V 14.353 L 27 15.353 z" stroke-linecap="round"/>
</g>
		<g transform="matrix(1 0 0 1 13 12)" id="Layer_1">
<path style="stroke: none; stroke-width: 1; stroke-dasharray: none; stroke-linecap: butt; stroke-dashoffset: 0; stroke-linejoin: miter; stroke-miterlimit: 4; is-custom-font: none; font-file-url: none; fill: rgb(255,211,105); fill-rule: nonzero; opacity: 1;" transform=" translate(-28, -27)" d="M 30 26 c 0 1.105 -2 4 -2 4 s -2 -2.895 -2 -4 s 0.895 -2 2 -2 S 30 24.895 30 26 z" stroke-linecap="round"/>
</g>
</g>
</g>
</svg>