<svg xmlns="http://www.w3.org/2000/svg" xmlns:xlink="http://www.w3.org/1999/xlink" version="1.1" width="1000" height="1000" viewBox="0 0 1000 1000" xml:space="preserve">
<desc>Created with Fabric.js 3.5.0</desc>
<defs>
</defs>
<rect x="0" y="0" width="100%" height="100%" fill="rgba(255,255,255,0)"/>
<g transform="matrix(2.2858 0 0 2.2858 500.0035 500.0035)" id="329025">
<path style="stroke: none; stroke-width: 1; stroke-dasharray: none; stroke-linecap: butt; stroke-dashoffset: 0; stroke-linejoin: miter; stroke-miterlimit: 4; is-custom-font: none; font-file-url: none; fill: rgb(255,211,105); fill-rule: evenodd; opacity: 1;" vector-effect="non-scaling-stroke" transform=" translate(-256, -256)" d="M 256 46.531 c -115.975 0 -210 93.784 -210 209.465 c 0 115.689 94.025 209.473 210 209.473 c 115.982 0 210 -93.783 210 -209.473 C 466 140.315 371.982 46.531 256 46.531 z M 358.624 203.37 c 0.099 2.267 0.151 4.556 0.151 6.845 c 0 69.975 -53.259 150.664 -150.658 150.664 c -29.909 0 -57.739 -8.764 -81.172 -23.793 c 4.142 0.488 8.358 0.744 12.635 0.744 c 24.803 0 47.634 -8.471 65.758 -22.672 c -23.169 -0.422 -42.724 -15.738 -49.463 -36.768 c 3.238 0.617 6.551 0.947 9.962 0.947 c 4.827 0 9.51 -0.646 13.953 -1.859 c -24.224 -4.863 -42.476 -26.264 -42.476 -51.918 c 0 -0.226 0 -0.444 0 -0.67 c 7.138 3.969 15.308 6.348 23.99 6.626 c -14.209 -9.495 -23.561 -25.707 -23.561 -44.08 c 0 -9.698 2.613 -18.794 7.168 -26.618 c 26.121 32.04 65.133 53.116 109.145 55.329 c -0.903 -3.877 -1.37 -7.921 -1.37 -12.07 c 0 -29.246 23.711 -52.95 52.95 -52.95 c 15.232 0 28.99 6.431 38.65 16.724 c 12.063 -2.38 23.396 -6.785 33.629 -12.854 c -3.953 12.364 -12.35 22.74 -23.282 29.298 c 10.707 -1.28 20.918 -4.126 30.413 -8.343 C 377.946 186.579 368.971 195.9 358.624 203.37 z" stroke-linecap="round"/>
</g>
</svg>